#!OML:ASF H:\Dans Jumps\Project 1\Capture day 1\Session 1\subject.ASF
:FULLY-SPECIFIED
:DEGREES
201
root 0.62562 16.0646 -16.2993 20.6866 -1.16451 -2.18823
lowerback 19.8234 0.0627851 -0.344586
upperback 11.2377 0.0342151 1.65256
thorax 1.04411 -0.0653617 1.94007
lowerneck -15.9427 0.753613 -1.09848
upperneck 17.502 1.28459 0.0470454
head 8.04225 0.535159 0.343487
rclavicle -1.58407e-015 5.1684e-015
rhumerus -19.3996 -6.02557 -82.2083
rradius 27.9524
rwrist 24.5791
rhand -18.5013 -26.1774
rfingers 7.12502
rthumb 7.78647 -56.0141
lclavicle -1.58407e-015 5.1684e-015
lhumerus -18.3776 -11.0833 89.6266
lradius 23.3176
lwrist 15.2027
lhand -27.7359 -3.62342
lfingers 7.12502
lthumb -1.13086 26.3533
rfemur -57.7617 -4.64739 21.9036
rtibia 57.0092
rfoot -17.8047 -7.14023
rtoes 6.03709
lfemur -57.4311 9.00168 -22.1063
ltibia 56.8691
lfoot -17.2997 8.86512
ltoes 2.0082
202
root 0.625777 16.0307 -16.3122 20.7389 -1.13484 -2.18733
lowerback 20.0077 0.0727866 -0.336219
upperback 11.2833 0.0488953 1.65863
thorax 1.00105 -0.0580471 1.94
lowerneck -15.9387 0.76203 -1.09173
upperneck 17.3534 1.29894 0.0202897
head 7.99216 0.540757 0.334451
rclavicle 1.52816e-015 -7.45132e-015
rhumerus -19.4669 -5.88496 -82.2353
rradius 28.0306
rwrist 24.4064
rhand -18.4768 -26.1198
rfingers 7.12502
rthumb 7.81013 -55.9556
lclavicle 1.52816e-015 -7.45132e-015
lhumerus -18.4573 -11.0621 89.6606
lradius 23.4133
lwrist 15.4622
lhand -27.9144 -4.02491
lfingers 7.12502
lthumb -1.3032 25.9509
rfemur -58.1666 -4.70911 21.9461
rtibia 57.5165
rfoot -17.9488 -7.18402
rtoes 5.88583
lfemur -57.8367 8.98718 -22.1342
ltibia 57.3733
lfoot -17.4413 8.92146
ltoes 1.9387
203
root 0.625953 15.9969 -16.3247 20.7913 -1.10203 -2.18295
lowerback 20.1835 0.0799311 -0.327517
upperback 11.33 0.0599813 1.66508
thorax 0.963883 -0.0525393 1.94073
lowerneck -15.9407 0.772492 -1.08137
upperneck 17.2061 1.31657 -0.0131993
head 7.94366 0.54747 0.323008
rclavicle -1.06769e-014 -2.80628e-015
rhumerus -19.5287 -5.74972 -82.2594
rradius 28.0964
rwrist 24.2458
rhand -18.448 -26.0376
rfingers 7.12502
rthumb 7.83799 -55.8723
lclavicle -1.06769e-014 -2.80628e-015
lhumerus -18.5361 -11.0119 89.6934
lradius 23.5087
lwrist 15.7608
lhand -28.1236 -4.4216
lfingers 7.12502
lthumb -1.50526 25.5528
rfemur -58.5675 -4.77559 21.9868
rtibia 58.0191
rfoot -18.0944 -7.22313
rtoes 5.74209
lfemur -58.2364 8.96318 -22.1617
ltibia 57.8698
lfoot -17.5776 8.98428
ltoes 1.85773
204
root 0.626046 15.9633 -16.337 20.8457 -1.06804 -2.17364
lowerback 20.3538 0.0857512 -0.321726
upperback 11.3761 0.0689331 1.6714
thorax 0.928986 -0.0482143 1.94332
lowerneck -15.9673 0.773447 -1.08853
upperneck 17.079 1.32179 -0.0258803
head 7.9061 0.549096 0.32017
rclavicle 4.25679e-015 1.92802e-014
rhumerus -19.5858 -5.61788 -82.2808
rradius 28.1511
rwrist 24.0972
rhand -18.4268 -25.9407
rfingers 7.12502
rthumb 7.85837 -55.7747
lclavicle 4.25679e-015 1.92802e-014
lhumerus -18.6107 -10.9417 89.7256
lradius 23.6028
lwrist 16.1037
lhand -28.3544 -4.7693
lfingers 7.12502
lthumb -1.72822 25.2034
rfemur -58.9687 -4.84742 22.0251
rtibia 58.5163
rfoot -18.2382 -7.25421
rtoes 5.61165
lfemur -58.6332 8.93029 -22.1906
ltibia 58.3573
lfoot -17.7074 9.05117
ltoes 1.77566
